<?xml version="1.0" encoding="UTF-8"?><svg id="_レイヤー_2" xmlns="http://www.w3.org/2000/svg" viewBox="0 0 666.04 15.89"><defs><style>.cls-1{fill:#d7b36e;}.cls-1,.cls-2{stroke-width:0px;}.cls-2{fill:#e3ca99;}</style></defs><g id="ol"><path class="cls-2" d="m649,2.28h0c-.04.09-.1.18-.17.28-.17.22-.31.45-.44.67-.17.3-.32.6-.44.9-.15.35-.27.7-.38,1.05-.1.32-.2.64-.31.96-.11.35-.23.7-.37,1.06-.12.3-.25.6-.4.92h0c-.16.32-.34.64-.56.97-.18.27-.38.54-.61.82-.23.28-.49.57-.79.86-.24.24-.51.48-.8.73-.3.25-.62.51-.98.77-.2.15-.42.3-.64.45-.1.07-.21.14-.31.2-.38.24-.77.47-1.17.67-.38.2-.77.39-1.16.55-.47.21-.95.39-1.43.55-.47.16-.94.31-1.42.43h0c-.59.16-1.17.29-1.75.4-.61.11-1.2.2-1.78.25h0c-.83.09-1.62.12-2.34.11-3.03-.03-4.88-.81-3.67-1.76.02-.01.04-.03.06-.04.32-.23.63-.47.93-.72.28-.23.55-.48.8-.73.28-.27.55-.55.81-.85.23-.26.45-.52.66-.8.23-.3.44-.6.65-.92.18-.28.36-.57.52-.86.18-.32.35-.65.51-.99.14-.3.27-.6.4-.92.13-.34.26-.69.38-1.06,0-.03.02-.06.03-.08.1-.3.21-.58.33-.85.16-.35.34-.67.54-.98.19-.29.39-.56.62-.81.26-.3.54-.58.84-.83.29-.25.59-.47.9-.68.38-.25.77-.47,1.18-.67.4-.2.82-.37,1.24-.52.53-.19,1.08-.34,1.62-.46.38-.08.75-.15,1.13-.2.2-.03.4-.05.61-.07.78-.08,1.62-.1,2.44-.07,2.8.12,5.37.9,4.73,2.27Z"/><path class="cls-2" d="m615.12,2.28h0c-.04.09-.1.18-.17.28-.17.22-.31.45-.44.67-.17.3-.32.6-.44.9-.15.35-.27.7-.38,1.05-.1.32-.2.64-.31.96-.11.35-.23.7-.37,1.06-.12.3-.25.6-.4.92h0c-.16.32-.34.64-.56.97-.18.27-.38.54-.61.82-.23.28-.49.57-.79.86-.24.24-.51.48-.8.73-.3.25-.62.51-.98.77-.2.15-.42.3-.64.45-.1.07-.21.14-.31.2-.38.24-.77.47-1.17.67-.38.2-.77.39-1.16.55-.47.21-.95.39-1.43.55-.47.16-.94.31-1.42.43h0c-.59.16-1.17.29-1.75.4-.61.11-1.2.2-1.78.25h0c-.83.09-1.62.12-2.34.11-3.03-.03-4.88-.81-3.67-1.76.02-.01.04-.03.06-.04.32-.23.63-.47.93-.72.28-.23.55-.48.8-.73.28-.27.55-.55.81-.85.23-.26.45-.52.66-.8.23-.3.44-.6.65-.92.18-.28.36-.57.52-.86.18-.32.35-.65.51-.99.14-.3.27-.6.4-.92.13-.34.26-.69.38-1.06,0-.03.02-.06.03-.08.1-.3.21-.58.33-.85.16-.35.34-.67.54-.98.19-.29.39-.56.62-.81.26-.3.54-.58.84-.83.29-.25.59-.47.9-.68.38-.25.77-.47,1.18-.67.4-.2.82-.37,1.24-.52.53-.19,1.08-.34,1.62-.46.38-.08.75-.15,1.13-.2.2-.03.4-.05.61-.07.78-.08,1.62-.1,2.44-.07,2.8.12,5.37.9,4.73,2.27Z"/><path class="cls-2" d="m581.25,2.28h0c-.04.09-.1.18-.17.28-.17.22-.31.45-.44.67-.17.3-.32.6-.44.9-.15.35-.27.7-.38,1.05-.1.32-.2.64-.31.96-.11.35-.23.7-.37,1.06-.12.3-.25.6-.4.92h0c-.16.32-.34.64-.56.97-.18.27-.38.54-.61.82-.23.28-.49.57-.79.86-.24.24-.51.48-.8.73-.3.25-.62.51-.98.77-.2.15-.42.3-.64.45-.1.07-.21.14-.31.2-.38.24-.77.47-1.17.67-.38.2-.77.39-1.16.55-.47.21-.95.39-1.43.55-.47.16-.94.31-1.42.43h0c-.59.16-1.17.29-1.75.4-.61.11-1.2.2-1.78.25h0c-.83.09-1.62.12-2.34.11-3.03-.03-4.88-.81-3.67-1.76.02-.01.04-.03.06-.04.32-.23.63-.47.93-.72.28-.23.55-.48.8-.73.28-.27.55-.55.81-.85.23-.26.45-.52.66-.8.23-.3.44-.6.65-.92.18-.28.36-.57.52-.86.18-.32.35-.65.51-.99.14-.3.27-.6.4-.92.13-.34.26-.69.38-1.06,0-.03.02-.06.03-.08.1-.3.21-.58.33-.85.16-.35.34-.67.54-.98.19-.29.39-.56.62-.81.26-.3.54-.58.84-.83.29-.25.59-.47.9-.68.38-.25.77-.47,1.18-.67.4-.2.82-.37,1.24-.52.53-.19,1.08-.34,1.62-.46.38-.08.75-.15,1.13-.2.2-.03.4-.05.61-.07.78-.08,1.62-.1,2.44-.07,2.8.12,5.37.9,4.73,2.27Z"/><path class="cls-2" d="m547.37,2.28h0c-.04.09-.1.18-.17.28-.17.22-.31.45-.44.67-.17.3-.32.6-.44.9-.15.35-.27.7-.38,1.05-.1.32-.2.64-.31.96-.11.35-.23.7-.37,1.06-.12.3-.25.6-.4.92h0c-.16.32-.34.64-.56.97-.18.27-.38.54-.61.82-.23.28-.49.57-.79.86-.24.24-.51.48-.8.73-.3.25-.62.51-.98.77-.2.15-.42.3-.64.45-.1.07-.21.14-.31.2-.38.24-.77.47-1.17.67-.38.2-.77.39-1.16.55-.47.21-.95.39-1.43.55-.47.16-.94.31-1.42.43h0c-.59.16-1.17.29-1.75.4-.61.11-1.2.2-1.78.25h0c-.83.09-1.62.12-2.34.11-3.03-.03-4.88-.81-3.67-1.76.02-.01.04-.03.06-.04.32-.23.63-.47.93-.72.28-.23.55-.48.8-.73.28-.27.55-.55.81-.85.23-.26.45-.52.66-.8.23-.3.44-.6.65-.92.18-.28.36-.57.52-.86.18-.32.35-.65.51-.99.14-.3.27-.6.4-.92.13-.34.26-.69.38-1.06,0-.03.02-.06.03-.08.1-.3.21-.58.33-.85.16-.35.34-.67.54-.98.19-.29.39-.56.62-.81.26-.3.54-.58.84-.83.29-.25.59-.47.9-.68.38-.25.77-.47,1.18-.67.4-.2.82-.37,1.24-.52.53-.19,1.08-.34,1.62-.46.38-.08.75-.15,1.13-.2.2-.03.4-.05.61-.07.78-.08,1.62-.1,2.44-.07,2.8.12,5.37.9,4.73,2.27Z"/><path class="cls-2" d="m513.5,2.28h0c-.04.09-.1.18-.17.28-.17.22-.31.45-.44.67-.17.3-.32.6-.44.9-.15.35-.27.7-.38,1.05-.1.32-.2.64-.31.96-.11.35-.23.7-.37,1.06-.12.3-.25.6-.4.92h0c-.16.32-.34.64-.56.97-.18.27-.38.54-.61.82-.23.28-.49.57-.79.86-.24.24-.51.48-.8.73-.3.25-.62.51-.98.77-.2.15-.42.3-.64.45-.1.07-.21.14-.31.2-.38.24-.77.47-1.17.67-.38.2-.77.39-1.16.55-.47.21-.95.39-1.43.55-.47.16-.94.31-1.42.43h0c-.59.16-1.17.29-1.75.4-.61.11-1.2.2-1.78.25h0c-.83.09-1.62.12-2.34.11-3.03-.03-4.88-.81-3.67-1.76.02-.01.04-.03.06-.04.32-.23.63-.47.93-.72.28-.23.55-.48.8-.73.28-.27.55-.55.81-.85.23-.26.45-.52.66-.8.23-.3.44-.6.65-.92.18-.28.36-.57.52-.86.18-.32.35-.65.51-.99.14-.3.27-.6.4-.92.13-.34.26-.69.38-1.06,0-.03.02-.06.03-.08.1-.3.21-.58.33-.85.16-.35.34-.67.54-.98.19-.29.39-.56.62-.81.26-.3.54-.58.84-.83.29-.25.59-.47.9-.68.38-.25.77-.47,1.18-.67.4-.2.82-.37,1.24-.52.53-.19,1.08-.34,1.62-.46.38-.08.75-.15,1.13-.2.2-.03.4-.05.61-.07.78-.08,1.62-.1,2.44-.07,2.8.12,5.37.9,4.73,2.27Z"/><path class="cls-2" d="m445.74,2.28h0c-.04.09-.1.18-.17.28-.17.22-.31.45-.44.67-.17.3-.32.6-.44.9-.15.35-.27.7-.38,1.05-.1.32-.2.64-.31.96-.11.35-.23.7-.37,1.06-.12.3-.25.6-.4.92h0c-.16.32-.34.64-.56.97-.18.27-.38.54-.61.82-.23.28-.49.57-.79.86-.24.24-.51.48-.8.73-.3.25-.62.51-.98.77-.2.15-.42.3-.64.45-.1.07-.21.14-.31.2-.38.24-.77.47-1.17.67-.38.2-.77.39-1.16.55-.47.21-.95.39-1.43.55-.47.16-.94.31-1.42.43h0c-.59.16-1.17.29-1.75.4-.61.11-1.2.2-1.78.25h0c-.83.09-1.62.12-2.34.11-3.03-.03-4.88-.81-3.67-1.76.02-.01.04-.03.06-.04.32-.23.63-.47.93-.72.28-.23.55-.48.8-.73.28-.27.55-.55.81-.85.23-.26.45-.52.66-.8.23-.3.44-.6.65-.92.18-.28.36-.57.52-.86.18-.32.35-.65.51-.99.14-.3.27-.6.4-.92.13-.34.26-.69.38-1.06,0-.03.02-.06.03-.08.1-.3.21-.58.33-.85.16-.35.34-.67.54-.98.19-.29.39-.56.62-.81.26-.3.54-.58.84-.83.29-.25.59-.47.9-.68.38-.25.77-.47,1.18-.67.4-.2.82-.37,1.24-.52.53-.19,1.08-.34,1.62-.46.38-.08.75-.15,1.13-.2.2-.03.4-.05.61-.07.78-.08,1.62-.1,2.44-.07,2.8.12,5.37.9,4.73,2.27Z"/><path class="cls-2" d="m411.87,2.28h0c-.04.09-.1.18-.17.28-.17.22-.31.45-.44.67-.17.3-.32.6-.44.9-.15.35-.27.7-.38,1.05-.1.32-.2.64-.31.96-.11.35-.23.7-.37,1.06-.12.3-.25.6-.4.92h0c-.16.32-.34.64-.56.97-.18.27-.38.54-.61.82-.23.28-.49.57-.79.86-.24.24-.51.48-.8.73-.3.25-.62.51-.98.77-.2.15-.42.3-.64.45-.1.07-.21.14-.31.2-.38.24-.77.47-1.17.67-.38.2-.77.39-1.16.55-.47.21-.95.39-1.43.55-.47.16-.94.31-1.42.43h0c-.59.16-1.17.29-1.75.4-.61.11-1.2.2-1.78.25h0c-.83.09-1.62.12-2.34.11-3.03-.03-4.88-.81-3.67-1.76.02-.01.04-.03.06-.04.32-.23.63-.47.93-.72.28-.23.55-.48.8-.73.28-.27.55-.55.81-.85.23-.26.45-.52.66-.8.23-.3.44-.6.65-.92.18-.28.36-.57.52-.86.18-.32.35-.65.51-.99.14-.3.27-.6.4-.92.13-.34.26-.69.38-1.06,0-.03.02-.06.03-.08.1-.3.21-.58.33-.85.16-.35.34-.67.54-.98.19-.29.39-.56.62-.81.26-.3.54-.58.84-.83.29-.25.59-.47.9-.68.38-.25.77-.47,1.18-.67.4-.2.82-.37,1.24-.52.53-.19,1.08-.34,1.62-.46.38-.08.75-.15,1.13-.2.2-.03.4-.05.61-.07.78-.08,1.62-.1,2.44-.07,2.8.12,5.37.9,4.73,2.27Z"/><path class="cls-2" d="m377.99,2.28h0c-.04.09-.1.18-.17.28-.17.22-.31.45-.44.67-.17.3-.32.6-.44.9-.15.35-.27.7-.38,1.05-.1.32-.2.64-.31.96-.11.35-.23.7-.37,1.06-.12.3-.25.6-.4.92h0c-.16.32-.34.64-.56.97-.18.27-.38.54-.61.82-.23.28-.49.57-.79.86-.24.24-.51.48-.8.73-.3.25-.62.51-.98.77-.2.15-.42.3-.64.45-.1.07-.21.14-.31.2-.38.24-.77.47-1.17.67-.38.2-.77.39-1.16.55-.47.21-.95.39-1.43.55-.47.16-.94.31-1.42.43h0c-.59.16-1.17.29-1.75.4-.61.11-1.2.2-1.78.25h0c-.83.09-1.62.12-2.34.11-3.03-.03-4.88-.81-3.67-1.76.02-.01.04-.03.06-.04.32-.23.63-.47.93-.72.28-.23.55-.48.8-.73.28-.27.55-.55.81-.85.23-.26.45-.52.66-.8.23-.3.44-.6.65-.92.18-.28.36-.57.52-.86.18-.32.35-.65.51-.99.14-.3.27-.6.4-.92.13-.34.26-.69.38-1.06,0-.03.02-.06.03-.08.1-.3.21-.58.33-.85.16-.35.34-.67.54-.98.19-.29.39-.56.62-.81.26-.3.54-.58.84-.83.29-.25.59-.47.9-.68.38-.25.77-.47,1.18-.67.4-.2.82-.37,1.24-.52.53-.19,1.08-.34,1.62-.46.38-.08.75-.15,1.13-.2.2-.03.4-.05.61-.07.78-.08,1.62-.1,2.44-.07,2.8.12,5.37.9,4.73,2.27Z"/><path class="cls-2" d="m344.12,2.28h0c-.04.09-.1.18-.17.28-.17.22-.31.45-.44.67-.17.3-.32.6-.44.9-.15.35-.27.7-.38,1.05-.1.32-.2.64-.31.96-.11.35-.23.7-.37,1.06-.12.3-.25.6-.4.92h0c-.16.32-.34.64-.56.97-.18.27-.38.54-.61.82-.23.28-.49.57-.79.86-.24.24-.51.48-.8.73-.3.25-.62.51-.98.77-.2.15-.42.3-.64.45-.1.07-.21.14-.31.2-.38.24-.77.47-1.17.67-.38.2-.77.39-1.16.55-.47.21-.95.39-1.43.55-.47.16-.94.31-1.42.43h0c-.59.16-1.17.29-1.75.4-.61.11-1.2.2-1.78.25h0c-.83.09-1.62.12-2.34.11-3.03-.03-4.88-.81-3.67-1.76.02-.01.04-.03.06-.04.32-.23.63-.47.93-.72.28-.23.55-.48.8-.73.28-.27.55-.55.81-.85.23-.26.45-.52.66-.8.23-.3.44-.6.65-.92.18-.28.36-.57.52-.86.18-.32.35-.65.51-.99.14-.3.27-.6.4-.92.13-.34.26-.69.38-1.06,0-.03.02-.06.03-.08.1-.3.21-.58.33-.85.16-.35.34-.67.54-.98.19-.29.39-.56.62-.81.26-.3.54-.58.84-.83.29-.25.59-.47.9-.68.38-.25.77-.47,1.18-.67.4-.2.82-.37,1.24-.52.53-.19,1.08-.34,1.62-.46.38-.08.75-.15,1.13-.2.2-.03.4-.05.61-.07.78-.08,1.62-.1,2.44-.07,2.8.12,5.37.9,4.73,2.27Z"/><path class="cls-2" d="m310.24,2.28h0c-.04.09-.1.18-.17.28-.17.22-.31.45-.44.67-.17.3-.32.6-.44.9-.15.35-.27.7-.38,1.05-.1.32-.2.64-.31.96-.11.35-.23.7-.37,1.06-.12.3-.25.6-.4.92h0c-.16.32-.34.64-.56.97-.18.27-.38.54-.61.82-.23.28-.49.57-.79.86-.24.24-.51.48-.8.73-.3.25-.62.51-.98.77-.2.15-.42.3-.64.45-.1.07-.21.14-.31.2-.38.24-.77.47-1.17.67-.38.2-.77.39-1.16.55-.47.21-.95.39-1.43.55-.47.16-.94.31-1.42.43h0c-.59.16-1.17.29-1.75.4-.61.11-1.2.2-1.78.25h0c-.83.09-1.62.12-2.34.11-3.03-.03-4.88-.81-3.67-1.76.02-.01.04-.03.06-.04.32-.23.63-.47.93-.72.28-.23.55-.48.8-.73.28-.27.55-.55.81-.85.23-.26.45-.52.66-.8.23-.3.44-.6.65-.92.18-.28.36-.57.52-.86.18-.32.35-.65.51-.99.14-.3.27-.6.4-.92.13-.34.26-.69.38-1.06,0-.03.02-.06.03-.08.1-.3.21-.58.33-.85.16-.35.34-.67.54-.98.19-.29.39-.56.62-.81.26-.3.54-.58.84-.83.29-.25.59-.47.9-.68.38-.25.77-.47,1.18-.67.4-.2.82-.37,1.24-.52.53-.19,1.08-.34,1.62-.46.38-.08.75-.15,1.13-.2.2-.03.4-.05.61-.07.78-.08,1.62-.1,2.44-.07,2.8.12,5.37.9,4.73,2.27Z"/><path class="cls-2" d="m276.36,2.28h0c-.04.09-.1.18-.17.28-.17.22-.31.45-.44.67-.17.3-.32.6-.44.9-.15.35-.27.7-.38,1.05-.1.32-.2.64-.31.96-.11.35-.23.7-.37,1.06-.12.3-.25.6-.4.92h0c-.16.32-.34.64-.56.97-.18.27-.38.54-.61.82-.23.28-.49.57-.79.86-.24.24-.51.48-.8.73-.3.25-.62.51-.98.77-.2.15-.42.3-.64.45-.1.07-.21.14-.31.2-.38.24-.77.47-1.17.67-.38.2-.77.39-1.16.55-.47.21-.95.39-1.43.55-.47.16-.94.31-1.42.43h0c-.59.16-1.17.29-1.75.4-.61.11-1.2.2-1.78.25h0c-.83.09-1.62.12-2.34.11-3.03-.03-4.88-.81-3.67-1.76.02-.01.04-.03.06-.04.32-.23.63-.47.93-.72.28-.23.55-.48.8-.73.28-.27.55-.55.81-.85.23-.26.45-.52.66-.8.23-.3.44-.6.65-.92.18-.28.36-.57.52-.86.18-.32.35-.65.51-.99.14-.3.27-.6.4-.92.13-.34.26-.69.38-1.06,0-.03.02-.06.03-.08.1-.3.21-.58.33-.85.16-.35.34-.67.54-.98.19-.29.39-.56.62-.81.26-.3.54-.58.84-.83.29-.25.59-.47.9-.68.38-.25.77-.47,1.18-.67.4-.2.82-.37,1.24-.52.53-.19,1.08-.34,1.62-.46.38-.08.75-.15,1.13-.2.2-.03.4-.05.61-.07.78-.08,1.62-.1,2.44-.07,2.8.12,5.37.9,4.73,2.27Z"/><path class="cls-2" d="m242.49,2.28h0c-.04.09-.1.18-.17.28-.17.22-.31.45-.44.67-.17.3-.32.6-.44.9-.15.35-.27.7-.38,1.05-.1.32-.2.64-.31.96-.11.35-.23.7-.37,1.06-.12.3-.25.6-.4.92h0c-.16.32-.34.64-.56.97-.18.27-.38.54-.61.82-.23.28-.49.57-.79.86-.24.24-.51.48-.8.73-.3.25-.62.51-.98.77-.2.15-.42.3-.64.45-.1.07-.21.14-.31.2-.38.24-.77.47-1.17.67-.38.2-.77.39-1.16.55-.47.21-.95.39-1.43.55-.47.16-.94.31-1.42.43h0c-.59.16-1.17.29-1.75.4-.61.11-1.2.2-1.78.25h0c-.83.09-1.62.12-2.34.11-3.03-.03-4.88-.81-3.67-1.76.02-.01.04-.03.06-.04.32-.23.63-.47.93-.72.28-.23.55-.48.8-.73.28-.27.55-.55.81-.85.23-.26.45-.52.66-.8.23-.3.44-.6.65-.92.18-.28.36-.57.52-.86.18-.32.35-.65.51-.99.14-.3.27-.6.4-.92.13-.34.26-.69.38-1.06,0-.03.02-.06.03-.08.1-.3.21-.58.33-.85.16-.35.34-.67.54-.98.19-.29.39-.56.62-.81.26-.3.54-.58.84-.83.29-.25.59-.47.9-.68.38-.25.77-.47,1.18-.67.4-.2.82-.37,1.24-.52.53-.19,1.08-.34,1.62-.46.38-.08.75-.15,1.13-.2.2-.03.4-.05.61-.07.78-.08,1.62-.1,2.44-.07,2.8.12,5.37.9,4.73,2.27Z"/><path class="cls-2" d="m208.61,2.28h0c-.04.09-.1.18-.17.28-.17.22-.31.45-.44.67-.17.3-.32.6-.44.9-.15.35-.27.7-.38,1.05-.1.32-.2.64-.31.96-.11.35-.23.7-.37,1.06-.12.3-.25.6-.4.92h0c-.16.32-.34.64-.56.97-.18.27-.38.54-.61.82-.23.28-.49.57-.79.86-.24.24-.51.48-.8.73-.3.25-.62.51-.98.77-.2.15-.42.3-.64.45-.1.07-.21.14-.31.2-.38.24-.77.47-1.17.67-.38.2-.77.39-1.16.55-.47.21-.95.39-1.43.55-.47.16-.94.31-1.42.43h0c-.59.16-1.17.29-1.75.4-.61.11-1.2.2-1.78.25h0c-.83.09-1.62.12-2.34.11-3.03-.03-4.88-.81-3.67-1.76.02-.01.04-.03.06-.04.32-.23.63-.47.93-.72.28-.23.55-.48.8-.73.28-.27.55-.55.81-.85.23-.26.45-.52.66-.8.23-.3.44-.6.65-.92.18-.28.36-.57.52-.86.18-.32.35-.65.51-.99.14-.3.27-.6.4-.92.13-.34.26-.69.38-1.06,0-.03.02-.06.03-.08.1-.3.21-.58.33-.85.16-.35.34-.67.54-.98.19-.29.39-.56.62-.81.26-.3.54-.58.84-.83.29-.25.59-.47.9-.68.38-.25.77-.47,1.18-.67.4-.2.82-.37,1.24-.52.53-.19,1.08-.34,1.62-.46.38-.08.75-.15,1.13-.2.2-.03.4-.05.61-.07.78-.08,1.62-.1,2.44-.07,2.8.12,5.37.9,4.73,2.27Z"/><path class="cls-2" d="m174.74,2.28h0c-.04.09-.1.18-.17.28-.17.22-.31.45-.44.67-.17.3-.32.6-.44.9-.15.35-.27.7-.38,1.05-.1.32-.2.64-.31.96-.11.35-.23.7-.37,1.06-.12.3-.25.6-.4.92h0c-.16.32-.34.64-.56.97-.18.27-.38.54-.61.82-.23.28-.49.57-.79.86-.24.24-.51.48-.8.73-.3.25-.62.51-.98.77-.2.15-.42.3-.64.45-.1.07-.21.14-.31.2-.38.24-.77.47-1.17.67-.38.2-.77.39-1.16.55-.47.21-.95.39-1.43.55-.47.16-.94.31-1.42.43h0c-.59.16-1.17.29-1.75.4-.61.11-1.2.2-1.78.25h0c-.83.09-1.62.12-2.34.11-3.03-.03-4.88-.81-3.67-1.76.02-.01.04-.03.06-.04.32-.23.63-.47.93-.72.28-.23.55-.48.8-.73.28-.27.55-.55.81-.85.23-.26.45-.52.66-.8.23-.3.44-.6.65-.92.18-.28.36-.57.52-.86.18-.32.35-.65.51-.99.14-.3.27-.6.4-.92.13-.34.26-.69.38-1.06,0-.03.02-.06.03-.08.1-.3.21-.58.33-.85.16-.35.34-.67.54-.98.19-.29.39-.56.62-.81.26-.3.54-.58.84-.83.29-.25.59-.47.9-.68.38-.25.77-.47,1.18-.67.4-.2.82-.37,1.24-.52.53-.19,1.08-.34,1.62-.46.38-.08.75-.15,1.13-.2.2-.03.4-.05.61-.07.78-.08,1.62-.1,2.44-.07,2.8.12,5.37.9,4.73,2.27Z"/><path class="cls-2" d="m140.86,2.28h0c-.04.09-.1.18-.17.28-.17.22-.31.45-.44.67-.17.3-.32.6-.44.9-.15.35-.27.7-.38,1.05-.1.32-.2.64-.31.96-.11.35-.23.7-.37,1.06-.12.3-.25.6-.4.92h0c-.16.32-.34.64-.56.97-.18.27-.38.54-.61.82-.23.28-.49.57-.79.86-.24.24-.51.48-.8.73-.3.25-.62.51-.98.77-.2.15-.42.3-.64.45-.1.07-.21.14-.31.2-.38.24-.77.47-1.17.67-.38.2-.77.39-1.16.55-.47.21-.95.39-1.43.55-.47.16-.94.31-1.42.43h0c-.59.16-1.17.29-1.75.4-.61.11-1.2.2-1.78.25h0c-.83.09-1.62.12-2.34.11-3.03-.03-4.88-.81-3.67-1.76.02-.01.04-.03.06-.04.32-.23.63-.47.93-.72.28-.23.55-.48.8-.73.28-.27.55-.55.81-.85.23-.26.45-.52.66-.8.23-.3.44-.6.65-.92.18-.28.36-.57.52-.86.18-.32.35-.65.51-.99.14-.3.27-.6.4-.92.13-.34.26-.69.38-1.06,0-.03.02-.06.03-.08.1-.3.21-.58.33-.85.16-.35.34-.67.54-.98.19-.29.39-.56.62-.81.26-.3.54-.58.84-.83.29-.25.59-.47.9-.68.38-.25.77-.47,1.18-.67.4-.2.82-.37,1.24-.52.53-.19,1.08-.34,1.62-.46.38-.08.75-.15,1.13-.2.2-.03.4-.05.61-.07.78-.08,1.62-.1,2.44-.07,2.8.12,5.37.9,4.73,2.27Z"/><path class="cls-2" d="m106.99,2.28h0c-.04.09-.1.18-.17.28-.17.22-.31.45-.44.67-.17.3-.32.6-.44.9-.15.35-.27.7-.38,1.05-.1.32-.2.64-.31.96-.11.35-.23.7-.37,1.06-.12.3-.25.6-.4.92h0c-.16.32-.34.64-.56.97-.18.27-.38.54-.61.82-.23.28-.49.57-.79.86-.24.24-.51.48-.8.73-.3.25-.62.51-.98.77-.2.15-.42.3-.64.45-.1.07-.21.14-.31.2-.38.24-.77.47-1.17.67-.38.2-.77.39-1.16.55-.47.21-.95.39-1.43.55-.47.16-.94.31-1.42.43h0c-.59.16-1.17.29-1.75.4-.61.11-1.2.2-1.78.25h0c-.83.09-1.62.12-2.34.11-3.03-.03-4.88-.81-3.67-1.76.02-.01.04-.03.06-.04.32-.23.63-.47.93-.72.28-.23.55-.48.8-.73.28-.27.55-.55.81-.85.23-.26.45-.52.66-.8.23-.3.44-.6.65-.92.18-.28.36-.57.52-.86.18-.32.35-.65.51-.99.14-.3.27-.6.4-.92.13-.34.26-.69.38-1.06,0-.03.02-.06.03-.08.1-.3.21-.58.33-.85.16-.35.34-.67.54-.98.19-.29.39-.56.62-.81.26-.3.54-.58.84-.83.29-.25.59-.47.9-.68.38-.25.77-.47,1.18-.67.4-.2.82-.37,1.24-.52.53-.19,1.08-.34,1.62-.46.38-.08.75-.15,1.13-.2.2-.03.4-.05.61-.07.78-.08,1.62-.1,2.44-.07,2.8.12,5.37.9,4.73,2.27Z"/><path class="cls-2" d="m73.11,2.28h0c-.04.09-.1.18-.17.28-.17.22-.31.45-.44.67-.17.3-.32.6-.44.9-.15.35-.27.7-.38,1.05-.1.32-.2.64-.31.96-.11.35-.23.7-.37,1.06-.12.3-.25.6-.4.92h0c-.16.32-.34.64-.56.97-.18.27-.38.54-.61.82-.23.28-.49.57-.79.86-.24.24-.51.48-.8.73-.3.25-.62.51-.98.77-.2.15-.42.3-.64.45-.1.07-.21.14-.31.2-.38.24-.77.47-1.17.67-.38.2-.77.39-1.16.55-.47.21-.95.39-1.43.55-.47.16-.94.31-1.42.43h0c-.59.16-1.17.29-1.75.4-.61.11-1.2.2-1.78.25h0c-.83.09-1.62.12-2.34.11-3.03-.03-4.88-.81-3.67-1.76.02-.01.04-.03.06-.04.32-.23.63-.47.93-.72.28-.23.55-.48.8-.73.28-.27.55-.55.81-.85.23-.26.45-.52.66-.8.23-.3.44-.6.65-.92.18-.28.36-.57.52-.86.18-.32.35-.65.51-.99.14-.3.27-.6.4-.92.13-.34.26-.69.38-1.06,0-.03.02-.06.03-.08.1-.3.21-.58.33-.85.16-.35.34-.67.54-.98.19-.29.39-.56.62-.81.26-.3.54-.58.84-.83.29-.25.59-.47.9-.68.38-.25.77-.47,1.18-.67.4-.2.82-.37,1.24-.52.53-.19,1.08-.34,1.62-.46.38-.08.75-.15,1.13-.2.2-.03.4-.05.61-.07.78-.08,1.62-.1,2.44-.07,2.8.12,5.37.9,4.73,2.27Z"/><path class="cls-2" d="m39.23,2.28h0c-.04.09-.1.18-.17.28-.17.22-.31.45-.44.67-.17.3-.32.6-.44.9-.15.35-.27.7-.38,1.05-.1.32-.2.64-.31.96-.11.35-.23.7-.37,1.06-.12.3-.25.6-.4.92h0c-.16.32-.34.64-.56.97-.18.27-.38.54-.61.82-.23.28-.49.57-.79.86-.24.24-.51.48-.8.73-.3.25-.62.51-.98.77-.2.15-.42.3-.64.45-.1.07-.21.14-.31.2-.38.24-.77.47-1.17.67-.38.2-.77.39-1.16.55-.47.21-.95.39-1.43.55-.47.16-.94.31-1.42.43h0c-.59.16-1.17.29-1.75.4-.61.11-1.2.2-1.78.25h0c-.83.09-1.62.12-2.34.11-3.03-.03-4.88-.81-3.67-1.76.02-.01.04-.03.06-.04.32-.23.63-.47.93-.72.28-.23.55-.48.8-.73.28-.27.55-.55.81-.85.23-.26.45-.52.66-.8.23-.3.44-.6.65-.92.18-.28.36-.57.52-.86.18-.32.35-.65.51-.99.14-.3.27-.6.4-.92.13-.34.26-.69.38-1.06,0-.03.02-.06.03-.08.1-.3.21-.58.33-.85.16-.35.34-.67.54-.98.19-.29.39-.56.62-.81.26-.3.54-.58.84-.83.29-.25.59-.47.9-.68.38-.25.77-.47,1.18-.67.4-.2.82-.37,1.24-.52.53-.19,1.08-.34,1.62-.46.38-.08.75-.15,1.13-.2.2-.03.4-.05.61-.07.78-.08,1.62-.1,2.44-.07,2.8.12,5.37.9,4.73,2.27Z"/><path class="cls-1" d="m665.94,2.28h0c-.04.09-.1.18-.17.28-.17.22-.31.45-.44.67-.17.3-.32.6-.44.9-.15.35-.27.7-.38,1.05-.1.32-.2.64-.31.96-.11.35-.23.7-.37,1.06-.12.3-.25.6-.4.92h0c-.16.32-.34.64-.56.97-.18.27-.38.54-.61.82-.23.28-.49.57-.79.86-.24.24-.51.48-.8.73-.3.25-.62.51-.98.77-.2.15-.42.3-.64.45-.1.07-.21.14-.31.2-.38.24-.77.47-1.17.67-.38.2-.77.39-1.16.55-.47.21-.95.39-1.43.55-.47.16-.94.31-1.42.43h0c-.59.16-1.17.29-1.75.4-.61.11-1.2.2-1.78.25h0c-.83.09-1.62.12-2.34.11-3.03-.03-4.88-.81-3.67-1.76.02-.01.04-.03.06-.04.32-.23.63-.47.93-.72.28-.23.55-.48.8-.73.28-.27.55-.55.81-.85.23-.26.45-.52.66-.8.23-.3.44-.6.65-.92.18-.28.36-.57.52-.86.18-.32.35-.65.51-.99.14-.3.27-.6.4-.92.13-.34.26-.69.38-1.06,0-.03.02-.06.03-.08.1-.3.21-.58.33-.85.16-.35.34-.67.54-.98.19-.29.39-.56.62-.81.26-.3.54-.58.84-.83.29-.25.59-.47.9-.68.38-.25.77-.47,1.18-.67.4-.2.82-.37,1.24-.52.53-.19,1.08-.34,1.62-.46.38-.08.75-.15,1.13-.2.2-.03.4-.05.61-.07.78-.08,1.62-.1,2.44-.07,2.8.12,5.37.9,4.73,2.27Z"/><path class="cls-1" d="m632.06,2.28h0c-.04.09-.1.18-.17.28-.17.22-.31.45-.44.67-.17.3-.32.6-.44.9-.15.35-.27.7-.38,1.05-.1.32-.2.64-.31.96-.11.35-.23.7-.37,1.06-.12.3-.25.6-.4.92h0c-.16.32-.34.64-.56.97-.18.27-.38.54-.61.82-.23.28-.49.57-.79.86-.24.24-.51.48-.8.73-.3.25-.62.51-.98.77-.2.15-.42.3-.64.45-.1.07-.21.14-.31.2-.38.24-.77.47-1.17.67-.38.2-.77.39-1.16.55-.47.21-.95.39-1.43.55-.47.16-.94.31-1.42.43h0c-.59.16-1.17.29-1.75.4-.61.11-1.2.2-1.78.25h0c-.83.09-1.62.12-2.34.11-3.03-.03-4.88-.81-3.67-1.76.02-.01.04-.03.06-.04.32-.23.63-.47.93-.72.28-.23.55-.48.8-.73.28-.27.55-.55.81-.85.23-.26.45-.52.66-.8.23-.3.44-.6.65-.92.18-.28.36-.57.52-.86.18-.32.35-.65.51-.99.14-.3.27-.6.4-.92.13-.34.26-.69.38-1.06,0-.03.02-.06.03-.08.1-.3.21-.58.33-.85.16-.35.34-.67.54-.98.19-.29.39-.56.62-.81.26-.3.54-.58.84-.83.29-.25.59-.47.9-.68.38-.25.77-.47,1.18-.67.4-.2.82-.37,1.24-.52.53-.19,1.08-.34,1.62-.46.38-.08.75-.15,1.13-.2.2-.03.4-.05.61-.07.78-.08,1.62-.1,2.44-.07,2.8.12,5.37.9,4.73,2.27Z"/><path class="cls-1" d="m598.19,2.28h0c-.04.09-.1.18-.17.28-.17.22-.31.45-.44.67-.17.3-.32.6-.44.9-.15.35-.27.7-.38,1.05-.1.32-.2.64-.31.96-.11.35-.23.7-.37,1.06-.12.3-.25.6-.4.92h0c-.16.32-.34.64-.56.97-.18.27-.38.54-.61.82-.23.28-.49.57-.79.86-.24.24-.51.48-.8.73-.3.25-.62.51-.98.77-.2.15-.42.3-.64.45-.1.07-.21.14-.31.2-.38.24-.77.47-1.17.67-.38.2-.77.39-1.16.55-.47.21-.95.39-1.43.55-.47.16-.94.31-1.42.43h0c-.59.16-1.17.29-1.75.4-.61.11-1.2.2-1.78.25h0c-.83.09-1.62.12-2.34.11-3.03-.03-4.88-.81-3.67-1.76.02-.01.04-.03.06-.04.32-.23.63-.47.93-.72.28-.23.55-.48.8-.73.28-.27.55-.55.81-.85.23-.26.45-.52.66-.8.23-.3.44-.6.65-.92.18-.28.36-.57.52-.86.18-.32.35-.65.51-.99.14-.3.27-.6.4-.92.13-.34.26-.69.38-1.06,0-.03.02-.06.03-.08.1-.3.21-.58.33-.85.16-.35.34-.67.54-.98.19-.29.39-.56.62-.81.26-.3.54-.58.84-.83.29-.25.59-.47.9-.68.38-.25.77-.47,1.18-.67.4-.2.82-.37,1.24-.52.53-.19,1.08-.34,1.62-.46.38-.08.75-.15,1.13-.2.2-.03.4-.05.61-.07.78-.08,1.62-.1,2.44-.07,2.8.12,5.37.9,4.73,2.27Z"/><path class="cls-1" d="m564.31,2.28h0c-.04.09-.1.18-.17.28-.17.22-.31.45-.44.67-.17.3-.32.6-.44.9-.15.35-.27.7-.38,1.05-.1.32-.2.64-.31.96-.11.35-.23.7-.37,1.06-.12.3-.25.6-.4.92h0c-.16.32-.34.64-.56.97-.18.27-.38.54-.61.82-.23.28-.49.57-.79.86-.24.24-.51.48-.8.73-.3.25-.62.51-.98.77-.2.15-.42.3-.64.45-.1.07-.21.14-.31.2-.38.24-.77.47-1.17.67-.38.2-.77.39-1.16.55-.47.21-.95.39-1.43.55-.47.16-.94.31-1.42.43h0c-.59.16-1.17.29-1.75.4-.61.11-1.2.2-1.78.25h0c-.83.09-1.62.12-2.34.11-3.03-.03-4.88-.81-3.67-1.76.02-.01.04-.03.06-.04.32-.23.63-.47.93-.72.28-.23.55-.48.8-.73.28-.27.55-.55.81-.85.23-.26.45-.52.66-.8.23-.3.44-.6.65-.92.18-.28.36-.57.52-.86.18-.32.35-.65.51-.99.14-.3.27-.6.4-.92.13-.34.26-.69.38-1.06,0-.03.02-.06.03-.08.1-.3.21-.58.33-.85.16-.35.34-.67.54-.98.19-.29.39-.56.62-.81.26-.3.54-.58.84-.83.29-.25.59-.47.9-.68.38-.25.77-.47,1.18-.67.4-.2.82-.37,1.24-.52.53-.19,1.08-.34,1.62-.46.38-.08.75-.15,1.13-.2.2-.03.4-.05.61-.07.78-.08,1.62-.1,2.44-.07,2.8.12,5.37.9,4.73,2.27Z"/><path class="cls-1" d="m530.43,2.28h0c-.04.09-.1.18-.17.28-.17.22-.31.45-.44.67-.17.3-.32.6-.44.9-.15.35-.27.7-.38,1.05-.1.32-.2.64-.31.96-.11.35-.23.7-.37,1.06-.12.3-.25.6-.4.92h0c-.16.32-.34.64-.56.97-.18.27-.38.54-.61.82-.23.28-.49.57-.79.86-.24.24-.51.48-.8.73-.3.25-.62.51-.98.77-.2.15-.42.3-.64.45-.1.07-.21.14-.31.2-.38.24-.77.47-1.17.67-.38.2-.77.39-1.16.55-.47.21-.95.39-1.43.55-.47.16-.94.31-1.42.43h0c-.59.16-1.17.29-1.75.4-.61.11-1.2.2-1.78.25h0c-.83.09-1.62.12-2.34.11-3.03-.03-4.88-.81-3.67-1.76.02-.01.04-.03.06-.04.32-.23.63-.47.93-.72.28-.23.55-.48.8-.73.28-.27.55-.55.81-.85.23-.26.45-.52.66-.8.23-.3.44-.6.65-.92.18-.28.36-.57.52-.86.18-.32.35-.65.51-.99.14-.3.27-.6.4-.92.13-.34.26-.69.38-1.06,0-.03.02-.06.03-.08.1-.3.21-.58.33-.85.16-.35.34-.67.54-.98.19-.29.39-.56.62-.81.26-.3.54-.58.84-.83.29-.25.59-.47.9-.68.38-.25.77-.47,1.18-.67.4-.2.82-.37,1.24-.52.53-.19,1.08-.34,1.62-.46.38-.08.75-.15,1.13-.2.2-.03.4-.05.61-.07.78-.08,1.62-.1,2.44-.07,2.8.12,5.37.9,4.73,2.27Z"/><path class="cls-1" d="m496.56,2.28h0c-.04.09-.1.18-.17.28-.17.22-.31.45-.44.67-.17.3-.32.6-.44.9-.15.35-.27.7-.38,1.05-.1.32-.2.64-.31.96-.11.35-.23.7-.37,1.06-.12.3-.25.6-.4.92h0c-.16.32-.34.64-.56.97-.18.27-.38.54-.61.82-.23.28-.49.57-.79.86-.24.24-.51.48-.8.73-.3.25-.62.51-.98.77-.2.15-.42.3-.64.45-.1.07-.21.14-.31.2-.38.24-.77.47-1.17.67-.38.2-.77.39-1.16.55-.47.21-.95.39-1.43.55-.47.16-.94.31-1.42.43h0c-.59.16-1.17.29-1.75.4-.61.11-1.2.2-1.78.25h0c-.83.09-1.62.12-2.34.11-3.03-.03-4.88-.81-3.67-1.76.02-.01.04-.03.06-.04.32-.23.63-.47.93-.72.28-.23.55-.48.8-.73.28-.27.55-.55.81-.85.23-.26.45-.52.66-.8.23-.3.44-.6.65-.92.18-.28.36-.57.52-.86.18-.32.35-.65.51-.99.14-.3.27-.6.4-.92.13-.34.26-.69.38-1.06,0-.03.02-.06.03-.08.1-.3.21-.58.33-.85.16-.35.34-.67.54-.98.19-.29.39-.56.62-.81.26-.3.54-.58.84-.83.29-.25.59-.47.9-.68.38-.25.77-.47,1.18-.67.4-.2.82-.37,1.24-.52.53-.19,1.08-.34,1.62-.46.38-.08.75-.15,1.13-.2.2-.03.4-.05.61-.07.78-.08,1.62-.1,2.44-.07,2.8.12,5.37.9,4.73,2.27Z"/><path class="cls-2" d="m479.62,2.28h0c-.04.09-.1.18-.17.28-.17.22-.31.45-.44.67-.17.3-.32.6-.44.9-.15.35-.27.7-.38,1.05-.1.32-.2.64-.31.96-.11.35-.23.7-.37,1.06-.12.3-.25.6-.4.92h0c-.16.32-.34.64-.56.97-.18.27-.38.54-.61.82-.23.28-.49.57-.79.86-.24.24-.51.48-.8.73-.3.25-.62.51-.98.77-.2.15-.42.3-.64.45-.1.07-.21.14-.31.2-.38.24-.77.47-1.17.67-.38.2-.77.39-1.16.55-.47.21-.95.39-1.43.55-.47.16-.94.31-1.42.43h0c-.59.16-1.17.29-1.75.4-.61.11-1.2.2-1.78.25h0c-.83.09-1.62.12-2.34.11-3.03-.03-4.88-.81-3.67-1.76.02-.01.04-.03.06-.04.32-.23.63-.47.93-.72.28-.23.55-.48.8-.73.28-.27.55-.55.81-.85.23-.26.45-.52.66-.8.23-.3.44-.6.65-.92.18-.28.36-.57.52-.86.18-.32.35-.65.51-.99.14-.3.27-.6.4-.92.13-.34.26-.69.38-1.06,0-.03.02-.06.03-.08.1-.3.21-.58.33-.85.16-.35.34-.67.54-.98.19-.29.39-.56.62-.81.26-.3.54-.58.84-.83.29-.25.59-.47.9-.68.38-.25.77-.47,1.18-.67.4-.2.82-.37,1.24-.52.53-.19,1.08-.34,1.62-.46.38-.08.75-.15,1.13-.2.2-.03.4-.05.61-.07.78-.08,1.62-.1,2.44-.07,2.8.12,5.37.9,4.73,2.27Z"/><path class="cls-1" d="m462.68,2.28h0c-.04.09-.1.18-.17.28-.17.22-.31.45-.44.67-.17.3-.32.6-.44.9-.15.35-.27.7-.38,1.05-.1.32-.2.64-.31.96-.11.35-.23.7-.37,1.06-.12.3-.25.6-.4.92h0c-.16.32-.34.64-.56.97-.18.27-.38.54-.61.82-.23.28-.49.57-.79.86-.24.24-.51.48-.8.73-.3.25-.62.51-.98.77-.2.15-.42.3-.64.45-.1.07-.21.14-.31.2-.38.24-.77.47-1.17.67-.38.2-.77.39-1.16.55-.47.21-.95.39-1.43.55-.47.16-.94.31-1.42.43h0c-.59.16-1.17.29-1.75.4-.61.11-1.2.2-1.78.25h0c-.83.09-1.62.12-2.34.11-3.03-.03-4.88-.81-3.67-1.76.02-.01.04-.03.06-.04.32-.23.63-.47.93-.72.28-.23.55-.48.8-.73.28-.27.55-.55.81-.85.23-.26.45-.52.66-.8.23-.3.44-.6.65-.92.18-.28.36-.57.52-.86.18-.32.35-.65.51-.99.14-.3.27-.6.4-.92.13-.34.26-.69.38-1.06,0-.03.02-.06.03-.08.1-.3.21-.58.33-.85.16-.35.34-.67.54-.98.19-.29.39-.56.62-.81.26-.3.54-.58.84-.83.29-.25.59-.47.9-.68.38-.25.77-.47,1.18-.67.4-.2.82-.37,1.24-.52.53-.19,1.08-.34,1.62-.46.38-.08.75-.15,1.13-.2.2-.03.4-.05.61-.07.78-.08,1.62-.1,2.44-.07,2.8.12,5.37.9,4.73,2.27Z"/><path class="cls-1" d="m428.81,2.28h0c-.04.09-.1.18-.17.28-.17.22-.31.45-.44.67-.17.3-.32.6-.44.9-.15.35-.27.7-.38,1.05-.1.32-.2.64-.31.96-.11.35-.23.7-.37,1.06-.12.3-.25.6-.4.92h0c-.16.32-.34.64-.56.97-.18.27-.38.54-.61.82-.23.28-.49.57-.79.86-.24.24-.51.48-.8.73-.3.25-.62.51-.98.77-.2.15-.42.3-.64.45-.1.07-.21.14-.31.2-.38.24-.77.47-1.17.67-.38.2-.77.39-1.16.55-.47.21-.95.39-1.43.55-.47.16-.94.31-1.42.43h0c-.59.16-1.17.29-1.75.4-.61.11-1.2.2-1.78.25h0c-.83.09-1.62.12-2.34.11-3.03-.03-4.88-.81-3.67-1.76.02-.01.04-.03.06-.04.32-.23.63-.47.93-.72.28-.23.55-.48.8-.73.28-.27.55-.55.81-.85.23-.26.45-.52.66-.8.23-.3.44-.6.65-.92.18-.28.36-.57.52-.86.18-.32.35-.65.51-.99.14-.3.27-.6.4-.92.13-.34.26-.69.38-1.06,0-.03.02-.06.03-.08.1-.3.21-.58.33-.85.16-.35.34-.67.54-.98.19-.29.39-.56.62-.81.26-.3.54-.58.84-.83.29-.25.59-.47.9-.68.38-.25.77-.47,1.18-.67.4-.2.82-.37,1.24-.52.53-.19,1.08-.34,1.62-.46.38-.08.75-.15,1.13-.2.2-.03.4-.05.61-.07.78-.08,1.62-.1,2.44-.07,2.8.12,5.37.9,4.73,2.27Z"/><path class="cls-1" d="m394.93,2.28h0c-.04.09-.1.18-.17.28-.17.22-.31.45-.44.67-.17.3-.32.6-.44.9-.15.35-.27.7-.38,1.05-.1.32-.2.64-.31.96-.11.35-.23.7-.37,1.06-.12.3-.25.6-.4.92h0c-.16.32-.34.64-.56.97-.18.27-.38.54-.61.82-.23.28-.49.57-.79.86-.24.24-.51.48-.8.73-.3.25-.62.51-.98.77-.2.15-.42.3-.64.45-.1.07-.21.14-.31.2-.38.24-.77.47-1.17.67-.38.2-.77.39-1.16.55-.47.21-.95.39-1.43.55-.47.16-.94.31-1.42.43h0c-.59.16-1.17.29-1.75.4-.61.11-1.2.2-1.78.25h0c-.83.09-1.62.12-2.34.11-3.03-.03-4.88-.81-3.67-1.76.02-.01.04-.03.06-.04.32-.23.63-.47.93-.72.28-.23.55-.48.8-.73.28-.27.55-.55.81-.85.23-.26.45-.52.66-.8.23-.3.44-.6.65-.92.18-.28.36-.57.52-.86.18-.32.35-.65.51-.99.14-.3.27-.6.4-.92.13-.34.26-.69.38-1.06,0-.03.02-.06.03-.08.1-.3.21-.58.33-.85.16-.35.34-.67.54-.98.19-.29.39-.56.62-.81.26-.3.54-.58.84-.83.29-.25.59-.47.9-.68.38-.25.77-.47,1.18-.67.4-.2.82-.37,1.24-.52.53-.19,1.08-.34,1.62-.46.38-.08.75-.15,1.13-.2.2-.03.4-.05.61-.07.78-.08,1.62-.1,2.44-.07,2.8.12,5.37.9,4.73,2.27Z"/><path class="cls-1" d="m361.05,2.28h0c-.04.09-.1.18-.17.28-.17.22-.31.45-.44.67-.17.3-.32.6-.44.9-.15.35-.27.7-.38,1.05-.1.32-.2.64-.31.96-.11.35-.23.7-.37,1.06-.12.3-.25.6-.4.92h0c-.16.32-.34.64-.56.97-.18.27-.38.54-.61.82-.23.28-.49.57-.79.86-.24.24-.51.48-.8.73-.3.25-.62.51-.98.77-.2.15-.42.3-.64.45-.1.07-.21.14-.31.2-.38.24-.77.47-1.17.67-.38.2-.77.39-1.16.55-.47.21-.95.39-1.43.55-.47.16-.94.31-1.42.43h0c-.59.16-1.17.29-1.75.4-.61.11-1.2.2-1.78.25h0c-.83.09-1.62.12-2.34.11-3.03-.03-4.88-.81-3.67-1.76.02-.01.04-.03.06-.04.32-.23.63-.47.93-.72.28-.23.55-.48.8-.73.28-.27.55-.55.81-.85.23-.26.45-.52.66-.8.23-.3.44-.6.65-.92.18-.28.36-.57.52-.86.18-.32.35-.65.51-.99.14-.3.27-.6.4-.92.13-.34.26-.69.38-1.06,0-.03.02-.06.03-.08.1-.3.21-.58.33-.85.16-.35.34-.67.54-.98.19-.29.39-.56.62-.81.26-.3.54-.58.84-.83.29-.25.59-.47.9-.68.38-.25.77-.47,1.18-.67.4-.2.82-.37,1.24-.52.53-.19,1.08-.34,1.62-.46.38-.08.75-.15,1.13-.2.2-.03.4-.05.61-.07.78-.08,1.62-.1,2.44-.07,2.8.12,5.37.9,4.73,2.27Z"/><path class="cls-1" d="m327.18,2.28h0c-.04.09-.1.18-.17.28-.17.22-.31.45-.44.67-.17.3-.32.6-.44.9-.15.35-.27.7-.38,1.05-.1.32-.2.64-.31.96-.11.35-.23.7-.37,1.06-.12.3-.25.6-.4.92h0c-.16.32-.34.64-.56.97-.18.27-.38.54-.61.82-.23.28-.49.57-.79.86-.24.24-.51.48-.8.73-.3.25-.62.51-.98.77-.2.15-.42.3-.64.45-.1.07-.21.14-.31.2-.38.24-.77.47-1.17.67-.38.2-.77.39-1.16.55-.47.21-.95.39-1.43.55-.47.16-.94.31-1.42.43h0c-.59.16-1.17.29-1.75.4-.61.11-1.2.2-1.78.25h0c-.83.09-1.62.12-2.34.11-3.03-.03-4.88-.81-3.67-1.76.02-.01.04-.03.06-.04.32-.23.63-.47.93-.72.28-.23.55-.48.8-.73.28-.27.55-.55.81-.85.23-.26.45-.52.66-.8.23-.3.44-.6.65-.92.18-.28.36-.57.52-.86.18-.32.35-.65.51-.99.14-.3.27-.6.4-.92.13-.34.26-.69.38-1.06,0-.03.02-.06.03-.08.1-.3.21-.58.33-.85.16-.35.34-.67.54-.98.19-.29.39-.56.62-.81.26-.3.54-.58.84-.83.29-.25.59-.47.9-.68.38-.25.77-.47,1.18-.67.4-.2.82-.37,1.24-.52.53-.19,1.08-.34,1.62-.46.38-.08.75-.15,1.13-.2.2-.03.4-.05.61-.07.78-.08,1.62-.1,2.44-.07,2.8.12,5.37.9,4.73,2.27Z"/><path class="cls-1" d="m293.3,2.28h0c-.04.09-.1.18-.17.28-.17.22-.31.45-.44.67-.17.3-.32.6-.44.9-.15.35-.27.7-.38,1.05-.1.32-.2.64-.31.96-.11.35-.23.7-.37,1.06-.12.3-.25.6-.4.92h0c-.16.32-.34.64-.56.97-.18.27-.38.54-.61.82-.23.28-.49.57-.79.86-.24.24-.51.48-.8.73-.3.25-.62.51-.98.77-.2.15-.42.3-.64.45-.1.07-.21.14-.31.2-.38.24-.77.47-1.17.67-.38.2-.77.39-1.16.55-.47.21-.95.39-1.43.55-.47.16-.94.31-1.42.43h0c-.59.16-1.17.29-1.75.4-.61.11-1.2.2-1.78.25h0c-.83.09-1.62.12-2.34.11-3.03-.03-4.88-.81-3.67-1.76.02-.01.04-.03.06-.04.32-.23.63-.47.93-.72.28-.23.55-.48.8-.73.28-.27.55-.55.81-.85.23-.26.45-.52.66-.8.23-.3.44-.6.65-.92.18-.28.36-.57.52-.86.18-.32.35-.65.51-.99.14-.3.27-.6.4-.92.13-.34.26-.69.38-1.06,0-.03.02-.06.03-.08.1-.3.21-.58.33-.85.16-.35.34-.67.54-.98.19-.29.39-.56.62-.81.26-.3.54-.58.84-.83.29-.25.59-.47.9-.68.38-.25.77-.47,1.18-.67.4-.2.82-.37,1.24-.52.53-.19,1.08-.34,1.62-.46.38-.08.75-.15,1.13-.2.2-.03.4-.05.61-.07.78-.08,1.62-.1,2.44-.07,2.8.12,5.37.9,4.73,2.27Z"/><path class="cls-1" d="m259.43,2.28h0c-.04.09-.1.18-.17.28-.17.22-.31.45-.44.67-.17.3-.32.6-.44.9-.15.35-.27.7-.38,1.05-.1.32-.2.64-.31.96-.11.35-.23.7-.37,1.06-.12.3-.25.6-.4.92h0c-.16.32-.34.64-.56.97-.18.27-.38.54-.61.82-.23.28-.49.57-.79.86-.24.24-.51.48-.8.73-.3.25-.62.51-.98.77-.2.15-.42.3-.64.45-.1.07-.21.14-.31.2-.38.24-.77.47-1.17.67-.38.2-.77.39-1.16.55-.47.21-.95.39-1.43.55-.47.16-.94.31-1.42.43h0c-.59.16-1.17.29-1.75.4-.61.11-1.2.2-1.78.25h0c-.83.09-1.62.12-2.34.11-3.03-.03-4.88-.81-3.67-1.76.02-.01.04-.03.06-.04.32-.23.63-.47.93-.72.28-.23.55-.48.8-.73.28-.27.55-.55.81-.85.23-.26.45-.52.66-.8.23-.3.44-.6.65-.92.18-.28.36-.57.52-.86.18-.32.35-.65.51-.99.14-.3.27-.6.4-.92.13-.34.26-.69.38-1.06,0-.03.02-.06.03-.08.1-.3.21-.58.33-.85.16-.35.34-.67.54-.98.19-.29.39-.56.62-.81.26-.3.54-.58.84-.83.29-.25.59-.47.9-.68.38-.25.77-.47,1.18-.67.4-.2.82-.37,1.24-.52.53-.19,1.08-.34,1.62-.46.38-.08.75-.15,1.13-.2.2-.03.4-.05.61-.07.78-.08,1.62-.1,2.44-.07,2.8.12,5.37.9,4.73,2.27Z"/><path class="cls-1" d="m225.55,2.28h0c-.04.09-.1.18-.17.28-.17.22-.31.45-.44.67-.17.3-.32.6-.44.9-.15.35-.27.7-.38,1.05-.1.32-.2.64-.31.96-.11.35-.23.7-.37,1.06-.12.3-.25.6-.4.92h0c-.16.32-.34.64-.56.97-.18.27-.38.54-.61.82-.23.28-.49.57-.79.86-.24.24-.51.48-.8.73-.3.25-.62.51-.98.77-.2.15-.42.3-.64.45-.1.07-.21.14-.31.2-.38.24-.77.47-1.17.67-.38.2-.77.39-1.16.55-.47.21-.95.39-1.43.55-.47.16-.94.31-1.42.43h0c-.59.16-1.17.29-1.75.4-.61.11-1.2.2-1.78.25h0c-.83.09-1.62.12-2.34.11-3.03-.03-4.88-.81-3.67-1.76.02-.01.04-.03.06-.04.32-.23.63-.47.93-.72.28-.23.55-.48.8-.73.28-.27.55-.55.81-.85.23-.26.45-.52.66-.8.23-.3.44-.6.65-.92.18-.28.36-.57.52-.86.18-.32.35-.65.51-.99.14-.3.27-.6.4-.92.13-.34.26-.69.38-1.06,0-.03.02-.06.03-.08.1-.3.21-.58.33-.85.16-.35.34-.67.54-.98.19-.29.39-.56.62-.81.26-.3.54-.58.84-.83.29-.25.59-.47.9-.68.38-.25.77-.47,1.18-.67.4-.2.82-.37,1.24-.52.53-.19,1.08-.34,1.62-.46.38-.08.75-.15,1.13-.2.2-.03.4-.05.61-.07.78-.08,1.62-.1,2.44-.07,2.8.12,5.37.9,4.73,2.27Z"/><path class="cls-1" d="m191.67,2.28h0c-.04.09-.1.18-.17.28-.17.22-.31.45-.44.67-.17.3-.32.6-.44.9-.15.35-.27.7-.38,1.05-.1.32-.2.64-.31.96-.11.35-.23.7-.37,1.06-.12.3-.25.6-.4.92h0c-.16.32-.34.64-.56.97-.18.27-.38.54-.61.82-.23.28-.49.57-.79.86-.24.24-.51.48-.8.73-.3.25-.62.51-.98.77-.2.15-.42.3-.64.45-.1.07-.21.14-.31.2-.38.24-.77.47-1.17.67-.38.2-.77.39-1.16.55-.47.21-.95.39-1.43.55-.47.16-.94.31-1.42.43h0c-.59.16-1.17.29-1.75.4-.61.11-1.2.2-1.78.25h0c-.83.09-1.62.12-2.34.11-3.03-.03-4.88-.81-3.67-1.76.02-.01.04-.03.06-.04.32-.23.63-.47.93-.72.28-.23.55-.48.8-.73.28-.27.55-.55.81-.85.23-.26.45-.52.66-.8.23-.3.44-.6.65-.92.18-.28.36-.57.52-.86.18-.32.35-.65.51-.99.14-.3.27-.6.4-.92.13-.34.26-.69.38-1.06,0-.03.02-.06.03-.08.1-.3.21-.58.33-.85.16-.35.34-.67.54-.98.19-.29.39-.56.62-.81.26-.3.54-.58.84-.83.29-.25.59-.47.9-.68.38-.25.77-.47,1.18-.67.4-.2.82-.37,1.24-.52.53-.19,1.08-.34,1.62-.46.38-.08.75-.15,1.13-.2.2-.03.4-.05.61-.07.78-.08,1.62-.1,2.44-.07,2.8.12,5.37.9,4.73,2.27Z"/><path class="cls-1" d="m157.8,2.28h0c-.04.09-.1.18-.17.28-.17.22-.31.45-.44.67-.17.3-.32.6-.44.9-.15.35-.27.7-.38,1.05-.1.32-.2.64-.31.96-.11.35-.23.7-.37,1.06-.12.3-.25.6-.4.92h0c-.16.32-.34.64-.56.97-.18.27-.38.54-.61.82-.23.28-.49.57-.79.86-.24.24-.51.48-.8.73-.3.25-.62.51-.98.77-.2.15-.42.3-.64.45-.1.07-.21.14-.31.2-.38.24-.77.47-1.17.67-.38.2-.77.39-1.16.55-.47.21-.95.39-1.43.55-.47.16-.94.31-1.42.43h0c-.59.16-1.17.29-1.75.4-.61.11-1.2.2-1.78.25h0c-.83.09-1.62.12-2.34.11-3.03-.03-4.88-.81-3.67-1.76.02-.01.04-.03.06-.04.32-.23.63-.47.93-.72.28-.23.55-.48.8-.73.28-.27.55-.55.81-.85.23-.26.45-.52.66-.8.23-.3.44-.6.65-.92.18-.28.36-.57.52-.86.18-.32.35-.65.51-.99.14-.3.27-.6.4-.92.13-.34.26-.69.38-1.06,0-.03.02-.06.03-.08.1-.3.21-.58.33-.85.16-.35.34-.67.54-.98.19-.29.39-.56.62-.81.26-.3.54-.58.84-.83.29-.25.59-.47.9-.68.38-.25.77-.47,1.18-.67.4-.2.82-.37,1.24-.52.53-.19,1.08-.34,1.62-.46.38-.08.75-.15,1.13-.2.2-.03.4-.05.61-.07.78-.08,1.62-.1,2.44-.07,2.8.12,5.37.9,4.73,2.27Z"/><path class="cls-1" d="m123.92,2.28h0c-.04.09-.1.18-.17.28-.17.22-.31.45-.44.67-.17.3-.32.6-.44.9-.15.35-.27.7-.38,1.05-.1.32-.2.64-.31.96-.11.35-.23.7-.37,1.06-.12.3-.25.6-.4.92h0c-.16.32-.34.64-.56.97-.18.27-.38.54-.61.82-.23.28-.49.57-.79.86-.24.24-.51.48-.8.73-.3.25-.62.51-.98.77-.2.15-.42.3-.64.45-.1.07-.21.14-.31.2-.38.24-.77.47-1.17.67-.38.2-.77.39-1.16.55-.47.21-.95.39-1.43.55-.47.16-.94.31-1.42.43h0c-.59.16-1.17.29-1.75.4-.61.11-1.2.2-1.78.25h0c-.83.09-1.62.12-2.34.11-3.03-.03-4.88-.81-3.67-1.76.02-.01.04-.03.06-.04.32-.23.63-.47.93-.72.28-.23.55-.48.8-.73.28-.27.55-.55.81-.85.23-.26.45-.52.66-.8.23-.3.44-.6.65-.92.18-.28.36-.57.52-.86.18-.32.35-.65.51-.99.14-.3.27-.6.4-.92.13-.34.26-.69.38-1.06,0-.03.02-.06.03-.08.1-.3.21-.58.33-.85.16-.35.34-.67.54-.98.19-.29.39-.56.62-.81.26-.3.54-.58.84-.83.29-.25.59-.47.9-.68.38-.25.77-.47,1.18-.67.4-.2.82-.37,1.24-.52.53-.19,1.08-.34,1.62-.46.38-.08.75-.15,1.13-.2.2-.03.4-.05.61-.07.78-.08,1.62-.1,2.44-.07,2.8.12,5.37.9,4.73,2.27Z"/><path class="cls-1" d="m90.05,2.28h0c-.04.09-.1.18-.17.28-.17.22-.31.45-.44.67-.17.3-.32.6-.44.9-.15.35-.27.7-.38,1.05-.1.32-.2.64-.31.96-.11.35-.23.7-.37,1.06-.12.3-.25.6-.4.92h0c-.16.32-.34.64-.56.97-.18.27-.38.54-.61.82-.23.28-.49.57-.79.86-.24.24-.51.48-.8.73-.3.25-.62.51-.98.77-.2.15-.42.3-.64.45-.1.07-.21.14-.31.2-.38.24-.77.47-1.17.67-.38.2-.77.39-1.16.55-.47.21-.95.39-1.43.55-.47.16-.94.31-1.42.43h0c-.59.16-1.17.29-1.75.4-.61.11-1.2.2-1.78.25h0c-.83.09-1.62.12-2.34.11-3.03-.03-4.88-.81-3.67-1.76.02-.01.04-.03.06-.04.32-.23.63-.47.93-.72.28-.23.55-.48.8-.73.28-.27.55-.55.81-.85.23-.26.45-.52.66-.8.23-.3.44-.6.65-.92.18-.28.36-.57.52-.86.18-.32.35-.65.51-.99.14-.3.27-.6.4-.92.13-.34.26-.69.38-1.06,0-.03.02-.06.03-.08.1-.3.21-.58.33-.85.16-.35.34-.67.54-.98.19-.29.39-.56.62-.81.26-.3.54-.58.84-.83.29-.25.59-.47.9-.68.38-.25.77-.47,1.18-.67.4-.2.82-.37,1.24-.52.53-.19,1.08-.34,1.62-.46.38-.08.75-.15,1.13-.2.2-.03.4-.05.61-.07.78-.08,1.62-.1,2.44-.07,2.8.12,5.37.9,4.73,2.27Z"/><path class="cls-1" d="m56.17,2.28h0c-.04.09-.1.18-.17.28-.17.22-.31.45-.44.67-.17.3-.32.6-.44.9-.15.35-.27.7-.38,1.05-.1.32-.2.64-.31.96-.11.35-.23.7-.37,1.06-.12.3-.25.6-.4.92h0c-.16.32-.34.64-.56.97-.18.27-.38.54-.61.82-.23.28-.49.57-.79.86-.24.24-.51.48-.8.73-.3.25-.62.51-.98.77-.2.15-.42.3-.64.45-.1.07-.21.14-.31.2-.38.24-.77.47-1.17.67-.38.2-.77.39-1.16.55-.47.21-.95.39-1.43.55-.47.16-.94.31-1.42.43h0c-.59.16-1.17.29-1.75.4-.61.11-1.2.2-1.78.25h0c-.83.09-1.62.12-2.34.11-3.03-.03-4.88-.81-3.67-1.76.02-.01.04-.03.06-.04.32-.23.63-.47.93-.72.28-.23.55-.48.8-.73.28-.27.55-.55.81-.85.23-.26.45-.52.66-.8.23-.3.44-.6.65-.92.18-.28.36-.57.52-.86.18-.32.35-.65.51-.99.14-.3.27-.6.4-.92.13-.34.26-.69.38-1.06,0-.03.02-.06.03-.08.1-.3.21-.58.33-.85.16-.35.34-.67.54-.98.19-.29.39-.56.62-.81.26-.3.54-.58.84-.83.29-.25.59-.47.9-.68.38-.25.77-.47,1.18-.67.4-.2.82-.37,1.24-.52.53-.19,1.08-.34,1.62-.46.38-.08.75-.15,1.13-.2.2-.03.4-.05.61-.07.78-.08,1.62-.1,2.44-.07,2.8.12,5.37.9,4.73,2.27Z"/><path class="cls-1" d="m22.3,2.28h0c-.04.09-.1.18-.17.28-.17.22-.31.45-.44.67-.17.3-.32.6-.44.9-.15.35-.27.7-.38,1.05-.1.32-.2.64-.31.96-.11.35-.23.7-.37,1.06-.12.3-.25.6-.4.92h0c-.16.32-.34.64-.56.97-.18.27-.38.54-.61.82-.23.28-.49.57-.79.86-.24.24-.51.48-.8.73-.3.25-.62.51-.98.77-.2.15-.42.3-.64.45-.1.07-.21.14-.31.2-.38.24-.77.47-1.17.67-.38.2-.77.39-1.16.55-.47.21-.95.39-1.43.55-.47.16-.94.31-1.42.43h0c-.59.16-1.17.29-1.75.4-.61.11-1.2.2-1.78.25h0c-.83.09-1.62.12-2.34.11-3.03-.03-4.88-.81-3.67-1.76.02-.01.04-.03.06-.04.32-.23.63-.47.93-.72.28-.23.55-.48.8-.73.28-.27.55-.55.81-.85.23-.26.45-.52.66-.8.23-.3.44-.6.65-.92.18-.28.36-.57.52-.86.18-.32.35-.65.51-.99.14-.3.27-.6.4-.92.13-.34.26-.69.38-1.06,0-.03.02-.06.03-.08.1-.3.21-.58.33-.85.16-.35.34-.67.54-.98.19-.29.39-.56.62-.81.26-.3.54-.58.84-.83.29-.25.59-.47.9-.68.38-.25.77-.47,1.18-.67.4-.2.82-.37,1.24-.52.53-.19,1.08-.34,1.62-.46.38-.08.75-.15,1.13-.2.2-.03.4-.05.61-.07.78-.08,1.62-.1,2.44-.07,2.8.12,5.37.9,4.73,2.27Z"/></g></svg>